<?xml version="1.0" standalone="no"?>
<!DOCTYPE svg PUBLIC "-//W3C//DTD SVG 20010904//EN"
 "http://www.w3.org/TR/2001/REC-SVG-20010904/DTD/svg10.dtd">
<svg version="1.0" xmlns="http://www.w3.org/2000/svg"
 width="225.000000pt" height="225.000000pt" viewBox="0 0 225.000000 225.000000"
 preserveAspectRatio="xMidYMid meet">
<metadata>
Created by potrace 1.14, written by Peter Selinger 2001-2017
</metadata>
<g transform="translate(0.000000,225.000000) scale(0.100000,-0.100000)"
fill="#000000" stroke="none">
<path d="M439 1956 c-56 -20 -96 -53 -126 -104 l-28 -47 0 -681 0 -681 30 -49
c19 -30 49 -60 79 -79 l49 -30 682 0 682 0 49 30 c30 19 60 49 79 79 l30 49 0
682 0 682 -30 49 c-19 30 -49 60 -79 79 l-49 30 -666 2 c-527 2 -674 0 -702
-11z m649 -268 c76 -24 170 -86 212 -138 36 -46 76 -131 85 -182 l7 -38 -40 0
c-51 0 -148 -30 -205 -63 -103 -61 -178 -182 -185 -299 l-4 -68 -33 0 c-18 0
-56 5 -85 10 -52 10 -54 9 -115 -30 -86 -56 -89 -55 -82 32 l6 71 -43 38
c-195 172 -173 462 44 608 131 87 285 108 438 59z m474 -430 c76 -35 151 -107
185 -177 24 -47 28 -69 28 -136 0 -68 -5 -88 -28 -134 -16 -29 -49 -73 -73
-97 -44 -42 -45 -45 -43 -99 1 -30 0 -58 -4 -61 -4 -4 -31 9 -61 29 -54 36
-54 36 -114 25 -174 -32 -373 73 -431 227 -45 118 -15 249 77 341 84 85 168
115 307 111 83 -2 110 -7 157 -29z"/>
<path d="M722 1458 c-22 -28 -22 -55 -1 -81 25 -32 61 -35 89 -7 24 24 25 48
4 78 -17 25 -74 31 -92 10z"/>
<path d="M1046 1448 c-9 -12 -16 -30 -16 -40 0 -25 36 -58 63 -58 47 0 78 68
47 105 -19 23 -76 19 -94 -7z"/>
<path d="M1212 1078 c-15 -15 -15 -61 0 -76 7 -7 24 -12 38 -12 33 0 50 17 50
50 0 14 -5 31 -12 38 -15 15 -61 15 -76 0z"/>
<path d="M1492 1078 c-7 -7 -12 -24 -12 -38 0 -34 17 -50 52 -50 37 0 57 38
40 75 -13 27 -58 35 -80 13z"/>
</g>
</svg>
